# xmcd
#
# Track frame offsets:
#	150
#	12727
#	25522
#	45567
#	61287
#	73767
#	91732
#	108002
#	124107
#	139820
#	156950
#	169032
#	188697
#	203370
#
# Disc length: 2876
#
# Revision: 1
# Processed by: cddbd v1.5.1PL0 Copyright (c) Steve Scherf et al.
# Submitted via: VisiTrax 2.9.3.171 - For more info visit www.synapsa.com
# Normalized: r0:DSETVAR1
#
DISCID=af0b3a0e
DTITLE=Various Artist - Mr Music Country 10--99
DYEAR=1900
DGENRE=
TTITLE0=Billy Keeble - Shame On Me
TTITLE1=Mindy Miller - Shy Little Bayou Love
TTITLE2=Matt King - Memories, Fiddles And Songs
TTITLE3=Dwight Yoakam - I'll Go Back To Her
TTITLE4=Paul Brandt - Add 'em All Up
TTITLE5=Connie Smith - Looking For a Reason
TTITLE6=David Ball - Watching My Baby Not Coming Back
TTITLE7=George Jones - When The Last Curtain Falls
TTITLE8=Claudia Church - The Streets Of Nashville
TTITLE9=Charlie Landsborough - What Colours Is The Wind
TTITLE10=Stop The Truck - Georgia Moon
TTITLE11=Chalee Tennison - Just Because She Lives There
TTITLE12=Benny Berry - Give Me a Good Country Song
TTITLE13=Mandy Barnett - Give Myself a Party
EXTD=
EXTT0=
EXTT1=
EXTT2=
EXTT3=
EXTT4=
EXTT5=
EXTT6=
EXTT7=
EXTT8=
EXTT9=
EXTT10=
EXTT11=
EXTT12=
EXTT13=
PLAYORDER=
